<svg width="40" height="48" viewBox="0 0 40 48" fill="none" xmlns="http://www.w3.org/2000/svg">
<path d="M3.06445 23.9637L2.7573 9.95771C1.07821 9.46627 0.23867 8.2991 0.23867 6.4562C0.23867 5.2276 1.11917 4.10138 2.88016 3.07755C4.68211 2.05372 6.72977 1.31656 9.02316 0.866067C11.3165 0.374628 13.4871 0.128909 15.5347 0.128909C19.5482 0.128909 23.1316 0.804639 26.285 2.1561C29.4794 3.50756 32.0389 5.3095 33.9637 7.56194C37.8543 12.1897 39.7996 17.7184 39.7996 24.148C39.7996 30.332 37.9157 35.7378 34.148 40.3656C32.3051 42.6589 29.8275 44.5018 26.715 45.8943C23.6435 47.2457 19.9782 47.9215 15.719 47.9215C11.4599 47.9215 7.77408 47.3072 4.66163 46.0785C1.54918 44.8499 -0.00704967 43.3142 -0.00704967 41.4713C-0.00704967 39.6284 0.955354 38.4817 2.88016 38.0312L3.06445 23.9637ZM31.138 23.9023C31.138 19.4794 29.7865 15.6912 27.0836 12.5378C24.4216 9.38436 20.572 7.80766 15.5347 7.80766C14.1423 7.80766 12.8318 7.99195 11.6032 8.36053C11.4804 10.8587 11.4189 15.9778 11.4189 23.718C11.4189 31.4582 11.5008 36.8026 11.6647 39.7513C12.9752 40.0379 14.4495 40.1813 16.0876 40.1813C19.4048 40.1813 22.2306 39.3827 24.565 37.7855C28.947 34.714 31.138 30.0863 31.138 23.9023Z" fill="white"/>
</svg>
